<svg width="18" height="15" viewBox="0 0 18 15" fill="none" xmlns="http://www.w3.org/2000/svg">
<mask id="path-1-outside-1_3_3" maskUnits="userSpaceOnUse" x="-1" y="-1" width="20" height="17" fill="black">
<rect fill="white" x="-1" y="-1" width="20" height="17"/>
<path d="M18 4.70312C17.6987 5.0346 17.3571 5.32589 16.9955 5.57701C15.3181 6.71205 13.6306 7.85714 11.9933 9.04241C11.1496 9.66518 10.1049 10.4286 9.01005 10.4286H9H8.98996C7.89509 10.4286 6.85045 9.66518 6.0067 9.04241C4.36942 7.8471 2.68192 6.71205 1.01451 5.57701C0.642857 5.32589 0.301339 5.0346 0 4.70312V12.6786C0 13.5625 0.723214 14.2857 1.60714 14.2857H16.3929C17.2768 14.2857 18 13.5625 18 12.6786V4.70312ZM18 1.75C18 0.866071 17.2667 0.142857 16.3929 0.142857H1.60714C0.532366 0.142857 0 0.986607 0 1.97098C0 2.88504 1.01451 4.02009 1.72768 4.50223C3.2846 5.58705 4.86161 6.67187 6.41853 7.76674C7.07143 8.21875 8.17634 9.14286 8.98996 9.14286H9H9.01005C9.82366 9.14286 10.9286 8.21875 11.5815 7.76674C13.1384 6.67187 14.7154 5.58705 16.2824 4.50223C17.1663 3.88951 18 2.875 18 1.75Z"/>
</mask>
<path d="M18 4.70312C17.6987 5.0346 17.3571 5.32589 16.9955 5.57701C15.3181 6.71205 13.6306 7.85714 11.9933 9.04241C11.1496 9.66518 10.1049 10.4286 9.01005 10.4286H9H8.98996C7.89509 10.4286 6.85045 9.66518 6.0067 9.04241C4.36942 7.8471 2.68192 6.71205 1.01451 5.57701C0.642857 5.32589 0.301339 5.0346 0 4.70312V12.6786C0 13.5625 0.723214 14.2857 1.60714 14.2857H16.3929C17.2768 14.2857 18 13.5625 18 12.6786V4.70312ZM18 1.75C18 0.866071 17.2667 0.142857 16.3929 0.142857H1.60714C0.532366 0.142857 0 0.986607 0 1.97098C0 2.88504 1.01451 4.02009 1.72768 4.50223C3.2846 5.58705 4.86161 6.67187 6.41853 7.76674C7.07143 8.21875 8.17634 9.14286 8.98996 9.14286H9H9.01005C9.82366 9.14286 10.9286 8.21875 11.5815 7.76674C13.1384 6.67187 14.7154 5.58705 16.2824 4.50223C17.1663 3.88951 18 2.875 18 1.75Z" fill="black"/>
<path d="M18 4.70312H19V2.11651L17.2601 4.03045L18 4.70312ZM16.9955 5.57701L17.556 6.40528L17.5659 6.39838L16.9955 5.57701ZM11.9933 9.04241L11.4069 8.23235L11.3995 8.23784L11.9933 9.04241ZM6.0067 9.04241L6.60056 8.23783L6.59634 8.23475L6.0067 9.04241ZM1.01451 5.57701L1.57723 4.75035L1.57437 4.74842L1.01451 5.57701ZM0 4.70312L0.73994 4.03045L-1 2.11652V4.70312H0ZM1.72768 4.50223L2.29942 3.68168L2.28775 3.67379L1.72768 4.50223ZM6.41853 7.76674L5.84328 8.58475L5.84932 8.58893L6.41853 7.76674ZM11.5815 7.76674L12.1507 8.58895L12.1567 8.58473L11.5815 7.76674ZM16.2824 4.50223L16.8516 5.32442L16.8521 5.32409L16.2824 4.50223ZM17.2601 4.03045C17.0151 4.29989 16.7321 4.54245 16.4251 4.75564L17.5659 6.39838C17.9822 6.10933 18.3822 5.7693 18.7399 5.3758L17.2601 4.03045ZM16.4351 4.74879C14.7588 5.88304 13.0588 7.03652 11.4069 8.23239L12.5797 9.85243C14.2023 8.67777 15.8773 7.54106 17.5559 6.40522L16.4351 4.74879ZM11.3995 8.23784C10.9703 8.55463 10.5544 8.85765 10.125 9.0868C9.69615 9.31567 9.32872 9.42857 9.01005 9.42857V11.4286C9.78623 11.4286 10.4886 11.1598 11.0667 10.8513C11.6443 10.543 12.1726 10.153 12.5872 9.84698L11.3995 8.23784ZM9.01005 9.42857H9V11.4286H9.01005V9.42857ZM9 9.42857H8.98996V11.4286H9V9.42857ZM8.98996 9.42857C8.67128 9.42857 8.30385 9.31567 7.87497 9.0868C7.44559 8.85765 7.02975 8.55463 6.60055 8.23784L5.41284 9.84698C5.82739 10.153 6.35575 10.543 6.93334 10.8513C7.51144 11.1598 8.21377 11.4286 8.98996 11.4286V9.42857ZM6.59634 8.23475C4.94229 7.02719 3.23749 5.88054 1.57723 4.75036L0.45179 6.40366C2.12635 7.54357 3.79655 8.66701 5.41705 9.85007L6.59634 8.23475ZM1.57437 4.74842C1.2645 4.53905 0.984342 4.29929 0.73994 4.03045L-0.73994 5.3758C-0.381663 5.7699 0.0212151 6.11273 0.454652 6.4056L1.57437 4.74842ZM-1 4.70312V12.6786H1V4.70312H-1ZM-1 12.6786C-1 14.1148 0.17093 15.2857 1.60714 15.2857V13.2857C1.2755 13.2857 1 13.0102 1 12.6786H-1ZM1.60714 15.2857H16.3929V13.2857H1.60714V15.2857ZM16.3929 15.2857C17.8291 15.2857 19 14.1148 19 12.6786H17C17 13.0102 16.7245 13.2857 16.3929 13.2857V15.2857ZM19 12.6786V4.70312H17V12.6786H19ZM19 1.75C19 0.309736 17.815 -0.857143 16.3929 -0.857143V1.14286C16.7185 1.14286 17 1.42241 17 1.75H19ZM16.3929 -0.857143H1.60714V1.14286H16.3929V-0.857143ZM1.60714 -0.857143C0.778789 -0.857143 0.08494 -0.517969 -0.380052 0.062726C-0.822879 0.61574 -1 1.3114 -1 1.97098H1C1 1.64619 1.08906 1.42779 1.18111 1.31283C1.251 1.22556 1.36072 1.14286 1.60714 1.14286V-0.857143ZM-1 1.97098C-1 2.75505 -0.588579 3.48386 -0.204388 3.99752C0.200415 4.53874 0.712075 5.02271 1.1676 5.33067L2.28775 3.67379C2.03011 3.49961 1.67793 3.17498 1.39719 2.79963C1.09583 2.39672 1 2.10097 1 1.97098H-1ZM1.15599 5.32271C2.72045 6.41278 4.2878 7.49086 5.8433 8.58473L6.99376 6.94875C5.43542 5.85288 3.84875 4.76133 2.29936 3.68176L1.15599 5.32271ZM5.84932 8.58893C6.09824 8.76126 6.63712 9.17394 7.11356 9.47204C7.57818 9.76274 8.27244 10.1429 8.98996 10.1429V8.14286C8.89386 8.14286 8.62886 8.06092 8.17439 7.77656C7.73175 7.49961 7.39172 7.22423 6.98774 6.94455L5.84932 8.58893ZM8.98996 10.1429H9V8.14286H8.98996V10.1429ZM9 10.1429H9.01005V8.14286H9V10.1429ZM9.01005 10.1429C9.72757 10.1429 10.4218 9.76274 10.8864 9.47204C11.3629 9.17394 11.9018 8.76126 12.1507 8.58893L11.0123 6.94455C10.6083 7.22423 10.2683 7.49961 9.82561 7.77656C9.37114 8.06092 9.10614 8.14286 9.01005 8.14286V10.1429ZM12.1567 8.58473C13.7096 7.49267 15.2813 6.41154 16.8516 5.32442L15.7132 3.68004C14.1495 4.76257 12.5671 5.85108 11.0062 6.94875L12.1567 8.58473ZM16.8521 5.32409C17.8509 4.63169 19 3.35433 19 1.75H17C17 2.39567 16.4817 3.14733 15.7127 3.68038L16.8521 5.32409Z" fill="black" mask="url(#path-1-outside-1_3_3)"/>
</svg>
